<?xml version="1.0" encoding="utf-8"?>
<!-- Generator: Adobe Illustrator 16.0.0, SVG Export Plug-In . SVG Version: 6.00 Build 0)  -->
<!DOCTYPE svg PUBLIC "-//W3C//DTD SVG 1.1//EN" "http://www.w3.org/Graphics/SVG/1.1/DTD/svg11.dtd">
<svg version="1.1" id="Capa_1" xmlns="http://www.w3.org/2000/svg" xmlns:xlink="http://www.w3.org/1999/xlink" x="0px" y="0px"
	 width="1477px" height="669px" viewBox="0 0 1477 669" enable-background="new 0 0 1477 669" xml:space="preserve">
<g id="_x23_f8f400ff">
	<path stroke="#F8F400" stroke-width="0.0938" d="M441.57,77.86c21.521-2.21,44.01,1.01,63.101,11.57
		c19.949,10.82,35.18,28.82,45.43,48.83c17.54,34.6,23.04,74.271,21.021,112.7c-2.13,33.82-10.35,68.18-29.3,96.69
		c-10.601,15.938-25.16,29.489-42.609,37.58c-20.221,9.43-43.4,11.398-65.24,7.72c-20.761-3.521-40.141-14.102-54.551-29.41
		c-20.449-21.59-31.84-50.19-37.688-78.98c-7.41-37.82-6.301-77.47,4.239-114.59c7.96-27.43,22.061-54.21,44.939-72.02
		C405.41,86.56,423.26,79.72,441.57,77.86 M447.49,155.76c-8.649,2.95-13.971,11.23-17.271,19.31
		c-5.779,14.59-7.45,30.41-8.33,45.97c-0.68,16.6-0.439,33.3,1.83,49.78c1.439,9.83,3.521,19.7,7.71,28.76
		c2.63,5.59,6.24,10.99,11.54,14.37c6.59,4.28,15.63,4.37,22.3,0.2c7.58-4.761,11.729-13.21,14.58-21.4
		c5.609-16.96,6.771-35,7.141-52.75c0.101-18.27-0.689-36.75-5.229-54.54c-2.5-9.12-5.971-18.54-13.05-25.14
		C463.16,155.06,454.72,153.31,447.49,155.76z"/>
	<path stroke="#F8F400" stroke-width="0.0938" d="M86.13,82.62c26.25,0.01,52.5-0.01,78.74,0.01
		c21.78,60.51,43.59,121.01,65.39,181.5c0.421,1.09,0.98,2.11,1.561,3.13c0-3.42-0.42-6.82-0.78-10.21
		c-3.08-29.66-7.66-59.22-8.34-89.08c-0.18-28.439-0.02-56.89-0.07-85.34c26.5-0.01,53,0,79.5,0c0,102.2,0,204.41,0,306.62
		c-26.5,0-53-0.01-79.489,0c-19.65-56.11-39.271-112.24-58.92-168.35c-1.051-2.99-1.98-6.02-3.36-8.87c-0.44,3,0.03,6.03,0.26,9.03
		c1.91,23.95,4.62,47.87,5.01,71.92c-0.01,32.09,0.011,64.18-0.02,96.27c-26.49,0-52.99,0-79.48,0
		C86.13,287.04,86.13,184.83,86.13,82.62z"/>
	<path stroke="#F8F400" stroke-width="0.0938" d="M606.51,389.25c-0.011-102.17-0.021-204.33,0-306.5
		c29.149,0.01,58.311-0.02,87.47,0.01c21.5,0.53,43.37,2.83,63.49,10.88c15.41,6.13,29.37,16.55,38.26,30.7
		c11.07,17.36,14.591,38.37,14.78,58.65c0.33,18.97-4.061,38.58-15.351,54.12c-7.949,11.14-19.369,19.51-32.04,24.55
		c20.561,42.53,41.16,85.05,61.689,127.59c-29.949,0.01-59.899,0-89.859,0c-14.319-39.75-28.63-79.5-42.96-119.24
		c-1.011-2.89-1.939-5.84-3.47-8.5c-0.19,12.63,0.84,25.25,0.939,37.891c0.09,29.949,0.02,59.899,0.029,89.859
		C661.83,389.24,634.171,389.25,606.51,389.25 M689.51,148.64c-0.021,25.18-0.011,50.36,0,75.54c10.22,1.53,21.271-1.57,28.311-9.34
		c9.33-10.04,12.101-24.75,9.97-37.98c-1.25-8.79-5.63-17.47-13.22-22.4C707.25,149.53,698.15,148.31,689.51,148.64z"/>
	<path stroke="#F8F400" stroke-width="0.0938" d="M864.54,82.62c34.471,0.01,68.95,0,103.431,0.01
		c8,54.5,15.62,109.07,23.859,163.53c1.74-6.52,1.82-13.4,2.92-20.06c2.91-25.55,8.32-50.7,12.961-75.96
		c4.25-22.51,8.449-45.03,12.72-67.53c34.08,0.03,68.149,0.02,102.229,0.01c9.92,102.21,19.811,204.42,29.71,306.63
		c-28.771,0-57.55-0.01-86.33,0.01c-2.579-64.069-5.199-128.13-7.68-192.2c-0.21-0.02-0.62-0.05-0.83-0.06
		c-3.979,24.48-7.069,49.11-11.801,73.47c-7.449,39.589-14.89,79.19-22.359,118.78c-22.58,0-45.16,0-67.739,0
		c-9.771-64.4-19.181-128.86-29.141-193.22c-1.229,6.91-0.3,13.979-0.729,20.96c0.391,39.4-2.971,78.69-4.891,118.02
		c-1.021,18.08-1.979,36.17-3.03,54.25c-29.68-0.02-59.369-0.01-89.06-0.01C840.69,287.04,852.62,184.83,864.54,82.62z"/>
	<path stroke="#F8F400" stroke-width="0.0938" d="M1230.671,82.63c33.79-0.01,67.579-0.01,101.37,0
		c21.699,102.21,43.409,204.41,65.1,306.62c-28.66,0-57.311,0-85.96,0c-2.021-13.17-4.069-26.33-6.101-39.5
		c-18.529,0-37.06-0.01-55.601,0.01c-2.31,13.17-4.569,26.351-6.938,39.51c-28.511-0.049-57.021-0.01-85.53-0.02
		C1181.57,287.04,1206.11,184.83,1230.671,82.63 M1279.771,155.57c-2.41,16.39-3.921,32.91-6.49,49.28
		c-4.26,26.59-8.529,53.18-12.779,79.77c11.6,0,23.199,0.02,34.8-0.01c-4.779-39.15-10.351-78.21-13.88-117.5
		C1280.801,163.28,1281.171,159.23,1279.771,155.57z"/>
	<path stroke="#F8F400" stroke-width="0.0938" d="M460.39,423.6c7.83-1.72,16.689-0.27,22.82,5.142
		c5.5,4.729,8.021,12.12,8.029,19.229c0.2,8.312-2.971,17.3-10.3,21.852c-10.16,6.3-25.189,5.198-33.21-4.102
		c-5.671-6.79-6.62-16.45-4.78-24.84C444.78,432.36,451.82,425.31,460.39,423.6z"/>
	<path stroke="#F8F400" stroke-width="0.0938" d="M1053.43,423.6c8.28-1.85,17.761-0.068,23.87,6.11
		c8.359,8.55,8.979,22.81,3.46,33.03c-8.63,14.87-33.91,14.729-42.271-0.33c-3.939-7.392-4.33-16.51-1.609-24.37
		C1039.381,430.74,1045.91,425.17,1053.43,423.6z"/>
	<path stroke="#F8F400" stroke-width="0.0938" d="M319,424.62c14.87,0.01,29.74,0.01,44.62,0c0.021,55.05,0,110.09,0.01,165.13
		c-13.949,0-27.898,0-41.85,0c0.27-5.46,0.68-10.92,0.779-16.38c-5.239,6.26-10.739,12.78-18.42,16.108
		c-8.79,4.172-19.649,3.632-27.899-1.568c-8.42-5.21-13.98-13.95-17.5-23.01c-6.71-17.472-6.74-37.222-1.13-54.99
		c3.22-9.92,8.61-19.7,17.399-25.68c8.16-5.632,19.28-6.74,28.28-2.5c6.65,2.828,11.99,7.948,16.181,13.729
		c0.399,0.21,1.189,0.62,1.59,0.83c-0.59-11.44-2.329-22.82-2.061-34.29C319,449.54,318.99,437.08,319,424.62 M306.35,520.59
		c-3.96,1.05-6.63,4.682-7.79,8.45c-1.811,6.11-1.209,13.4,2.939,18.46c3.13,3.85,9.41,4.63,13.17,1.28
		c6.801-6.01,7.99-17.53,2.12-24.58C314.36,521.15,310.18,519.41,306.35,520.59z"/>
	<path stroke="#F8F400" stroke-width="0.0938" d="M1348.631,424.63c14.869-0.01,29.739,0,44.619,0
		c-0.039,55.062,0.08,110.13-0.06,165.2c-14.86-0.2-29.721,0-44.58-0.102C1348.64,534.69,1348.62,479.66,1348.631,424.63z"/>
	<path stroke="#F8F400" stroke-width="0.0938" d="M89.49,436.38c29.3-0.01,58.59-0.02,87.89,0.01c-0.01,14.03-0.01,28.07,0,42.102
		c-13.33,0.02-26.67,0.01-40,0.01c-0.01,4.79,0,9.58-0.01,14.37c12.17,0,24.33,0,36.5,0c0,13.29,0.01,26.59,0,39.89
		c-12.16-0.02-24.31,0-36.47-0.02c-0.05,4.96-0.021,9.92-0.03,14.88c13.8,0.01,27.59-0.01,41.391,0.01
		c-0.021,14.04,0,28.08-0.011,42.12c-29.76-0.021-59.52,0.04-89.27-0.03C89.52,538.61,89.5,487.49,89.49,436.38z"/>
	<path stroke="#F8F400" stroke-width="0.0938" d="M575.25,447.01c15.04-0.02,30.08-0.01,45.12-0.01
		c0.051,12.09-0.1,24.18,0.07,36.27c4.93-0.39,9.869-0.6,14.81-0.868c-0.01,13.79,0,27.59,0,41.39c-4.96-0.37-9.92-0.68-14.869-1.04
		c-0.011,22.33,0,44.67-0.011,67.01c-15.04-0.02-30.08,0-45.12-0.01c0-22.34,0-44.68,0-67.01c-3.63,0.35-7.26,0.68-10.89,1.01
		c0.04-13.8-0.021-27.61,0.029-41.42c3.609,0.27,7.24,0.53,10.859,0.83C575.25,471.11,575.25,459.06,575.25,447.01z"/>
	<path stroke="#F8F400" stroke-width="0.0938" d="M748.53,479.77c15.279-2.1,31.72,0.922,44.17,10.36
		c10.189,7.61,16.88,19.3,19.351,31.69c2.859,14.56,1.96,30.46-5.431,43.6c-6.6,12.021-18.43,20.72-31.54,24.42
		c-16.59,4.75-35.34,2.561-49.869-6.95c-12.36-7.91-20.57-21.51-22.561-35.979c-1.971-14.97,0.1-31.011,8.3-43.94
		C719.07,489.97,733.47,481.69,748.53,479.77 M754.49,520.74c-9.12,3.38-11.42,15.91-7.13,23.85c2.8,5.76,10.601,8.55,16.14,4.94
		c7.761-4.95,8.479-16.48,3.801-23.79C764.729,521.51,759.29,519.09,754.49,520.74z"/>
	<path stroke="#F8F400" stroke-width="0.0938" d="M942.26,484.23c6.13-4.802,14.271-5.2,21.729-5.132
		c0.021,17.882,0.01,35.762,0.01,53.63c-3.399-2.318-6.779-5.05-10.949-5.738c-5.431-0.91-11.57,0.54-15.261,4.818
		c-3.85,4.42-4.92,10.512-4.93,16.2c0.021,13.91,0.021,27.83,0.01,41.74c-14.88,0-29.75,0-44.62,0
		c0.021-36.05-0.029-72.09,0.03-108.14c14.851,0.02,29.699,0.028,44.55,0c-0.271,5.01-0.859,10.01-0.899,15.028
		C935.229,492.4,937.76,487.41,942.26,484.23z"/>
	<path stroke="#F8F400" stroke-width="0.0938" d="M1178.69,486.67c11.021-9.61,29.069-10.26,40.319-0.7
		c3.16,2.5,5.279,5.99,7.949,8.972c-0.25-4.46-0.869-8.892-1.31-13.32c14.569,0.01,29.149,0,43.72,0.01
		c0.01,36.03-0.01,72.062,0.021,108.09c-14.591,0.052-29.171,0.04-43.75,0.011c0.471-4.869,1.04-9.739,1.34-14.619
		c-4.351,4.33-8.029,9.438-13.311,12.72c-9.7,6.36-23.2,5.76-32.609-0.88c-9.659-6.76-15.431-17.73-18.671-28.812
		c-4.479-15.479-4.06-32.29,1.021-47.568C1166.45,501.54,1171.31,492.86,1178.69,486.67 M1210.47,521.63
		c-8.04,4.91-8.439,16.69-4.271,24.3c3.41,6.342,13.521,6.66,17.529,0.771c3.75-5.53,4.33-13.16,1.791-19.3
		C1223.26,521.72,1215.961,518.62,1210.47,521.63z"/>
	<path stroke="#F8F400" stroke-width="0.0938" d="M444.37,589.75c0.011-36.05-0.01-72.09,0.011-108.13
		c14.88,0.02,29.75-0.01,44.63,0.01c-0.021,36.04,0,72.08-0.011,108.12C474.12,589.75,459.25,589.75,444.37,589.75z"/>
	<path stroke="#F8F400" stroke-width="0.0938" d="M1037.37,589.74c0.011-36.04-0.021-72.08,0.021-108.13
		c14.87,0.028,29.74,0,44.62,0.02c-0.021,36.04,0,72.08-0.011,108.12C1067.12,589.74,1052.25,589.76,1037.37,589.74z"/>
</g>
</svg>
